<svg width="50" height="50" viewBox="0 0 50 50" fill="none" xmlns="http://www.w3.org/2000/svg">
<g filter="url(#filter0_d_180_49)">
<circle cx="25" cy="21" r="20" fill="#3B653E"/>
<path d="M30 11H20C17.2386 11 15 13.2386 15 16V26C15 28.7614 17.2386 31 20 31H30C32.7614 31 35 28.7614 35 26V16C35 13.2386 32.7614 11 30 11Z" fill="#3B653E" stroke="#F9F9F9" stroke-width="2" stroke-linecap="round" stroke-linejoin="round"/>
<path d="M29 20.3701C29.1234 21.2023 28.9812 22.0523 28.5937 22.7991C28.2062 23.5459 27.5931 24.1515 26.8416 24.5297C26.0901 24.908 25.2384 25.0397 24.4077 24.906C23.5771 24.7723 22.8097 24.3801 22.2148 23.7852C21.6199 23.1903 21.2277 22.4229 21.094 21.5923C20.9604 20.7616 21.092 19.91 21.4703 19.1584C21.8485 18.4069 22.4541 17.7938 23.2009 17.4063C23.9477 17.0188 24.7977 16.8766 25.63 17.0001C26.4789 17.1259 27.2648 17.5215 27.8716 18.1284C28.4785 18.7352 28.8741 19.5211 29 20.3701Z" fill="#3B653E" stroke="#F9F9F9" stroke-width="2" stroke-linecap="round" stroke-linejoin="round"/>
<path d="M30.5 15.5H30.51" stroke="#F9F9F9" stroke-width="2" stroke-linecap="round" stroke-linejoin="round"/>
</g>
<defs>
<filter id="filter0_d_180_49" x="0" y="0" width="50" height="50" filterUnits="userSpaceOnUse" color-interpolation-filters="sRGB">
<feFlood flood-opacity="0" result="BackgroundImageFix"/>
<feColorMatrix in="SourceAlpha" type="matrix" values="0 0 0 0 0 0 0 0 0 0 0 0 0 0 0 0 0 0 127 0" result="hardAlpha"/>
<feOffset dy="4"/>
<feGaussianBlur stdDeviation="2.5"/>
<feColorMatrix type="matrix" values="0 0 0 0 0 0 0 0 0 0 0 0 0 0 0 0 0 0 0.15 0"/>
<feBlend mode="normal" in2="BackgroundImageFix" result="effect1_dropShadow_180_49"/>
<feBlend mode="normal" in="SourceGraphic" in2="effect1_dropShadow_180_49" result="shape"/>
</filter>
</defs>
</svg>
