<svg width="50" height="50" viewBox="0 0 50 50" fill="none" xmlns="http://www.w3.org/2000/svg">
<g filter="url(#filter0_d_180_57)">
<circle cx="25" cy="21" r="20" fill="#3B653E"/>
</g>
<path d="M22.6812 30.8464C21.2412 30.8464 19.8831 30.3869 18.7533 29.5178C18.5426 29.3555 18.3398 29.1782 18.1503 28.9911C16.8313 27.6877 16.1676 25.9516 16.2816 24.1033C16.3678 22.7057 16.9308 21.3587 17.8674 20.3102C19.1069 18.9216 20.8167 18.1571 22.6812 18.1571C23.0011 18.1571 23.3245 18.1809 23.6429 18.2282C23.9648 18.2759 24.2031 18.5522 24.2031 18.8776V21.9248C24.2031 22.1355 24.102 22.3333 23.9313 22.457C23.7604 22.5801 23.5405 22.6141 23.341 22.5482C23.1305 22.4788 22.9116 22.4434 22.6902 22.4434C22.1311 22.4434 21.6075 22.6624 21.2158 23.06C20.8261 23.4554 20.6163 23.9786 20.6244 24.5333C20.6351 25.2488 21.0119 25.8973 21.6329 26.2689C21.9187 26.4396 22.2443 26.5396 22.5745 26.5577C22.8344 26.5717 23.093 26.5376 23.3407 26.456C24.1873 26.1763 24.756 25.391 24.756 24.502L24.7597 11.8098C24.7597 11.4472 25.0536 11.1533 25.4162 11.1533H28.4174C28.7776 11.1533 29.0703 11.4435 29.0738 11.8036C29.0762 12.0559 29.1018 12.3071 29.1504 12.5502C29.341 13.508 29.878 14.3611 30.6624 14.9526C31.3536 15.4738 32.1775 15.7512 33.0459 15.7554C33.098 15.7532 33.1501 15.7571 33.2024 15.7674C33.5096 15.8285 33.7308 16.098 33.7308 16.4112V19.3988C33.7308 19.7623 33.4343 20.0561 33.0711 20.0553C31.9567 20.0553 30.8736 19.8367 29.8515 19.4054C29.5876 19.294 29.3303 19.1693 29.0804 19.0317L29.0931 24.5236C29.0859 26.214 28.4181 27.7988 27.2126 28.9905C26.2347 29.957 25.0004 30.5742 23.6429 30.7753C23.3261 30.8228 23.0025 30.8464 22.6812 30.8464ZM22.6812 19.4697C21.1957 19.4697 19.8338 20.0787 18.8468 21.1843C18.1059 22.0141 17.6604 23.0793 17.5921 24.1838C17.5017 25.6483 18.0277 27.0238 19.0732 28.0568C19.2244 28.2063 19.3866 28.3478 19.5546 28.4774C20.4522 29.1684 21.5336 29.5336 22.6812 29.5336C22.9383 29.5336 23.197 29.5145 23.4504 29.4769C24.5298 29.3172 25.5116 28.8259 26.2895 28.057C27.245 27.1126 27.7745 25.8573 27.7802 24.5228L27.7649 17.8192C27.7642 17.5687 27.9063 17.3398 28.1312 17.2289C28.3561 17.1179 28.624 17.1448 28.8224 17.298C29.2929 17.6612 29.811 17.9634 30.3622 18.196C31.0208 18.4739 31.7099 18.6468 32.4182 18.7124V17.0297C31.4946 16.9184 30.6246 16.5683 29.8723 16.0009C28.8303 15.2154 28.1168 14.0808 27.8629 12.8064C27.8402 12.6942 27.8218 12.5806 27.8065 12.4662H26.0726L26.0689 24.5024C26.0689 25.9586 25.1381 27.2448 23.7523 27.7025C23.3482 27.8358 22.9272 27.8923 22.5022 27.8684C21.9605 27.8386 21.4268 27.6752 20.959 27.3956C19.9448 26.789 19.329 25.7262 19.3115 24.553C19.298 23.644 19.6419 22.7865 20.2804 22.1386C20.9677 21.4408 21.9139 21.0773 22.89 21.1362V19.4741C22.8204 19.4713 22.7506 19.4697 22.6812 19.4697Z" fill="#F5F5F5"/>
<defs>
<filter id="filter0_d_180_57" x="0" y="0" width="50" height="50" filterUnits="userSpaceOnUse" color-interpolation-filters="sRGB">
<feFlood flood-opacity="0" result="BackgroundImageFix"/>
<feColorMatrix in="SourceAlpha" type="matrix" values="0 0 0 0 0 0 0 0 0 0 0 0 0 0 0 0 0 0 127 0" result="hardAlpha"/>
<feOffset dy="4"/>
<feGaussianBlur stdDeviation="2.5"/>
<feColorMatrix type="matrix" values="0 0 0 0 0 0 0 0 0 0 0 0 0 0 0 0 0 0 0.15 0"/>
<feBlend mode="normal" in2="BackgroundImageFix" result="effect1_dropShadow_180_57"/>
<feBlend mode="normal" in="SourceGraphic" in2="effect1_dropShadow_180_57" result="shape"/>
</filter>
</defs>
</svg>
